<?xml version="1.0" encoding="UTF-8"?>
<svg version="1.1" xmlns="http://www.w3.org/2000/svg" width="2456" height="2442">
  <path d="M0 0 C1.3715722 -0.00701836 2.74314406 -0.01410521 4.11471558 -0.02125549 C8.47752341 -0.04067773 12.8402783 -0.04568957 17.203125 -0.046875 C17.94542107 -0.04731686 18.68771713 -0.04775871 19.45250702 -0.04821396 C41.26012237 -0.05502789 62.81291477 0.14085904 84.453125 3.203125 C86.41451416 3.46851074 86.41451416 3.46851074 88.41552734 3.73925781 C147.54403435 11.80923239 204.1169704 29.46500679 257.453125 56.203125 C258.42443359 56.68749023 259.39574219 57.17185547 260.39648438 57.67089844 C294.51250761 74.77461136 326.96347352 96.11112602 355.828125 121.125 C356.40965332 121.62555908 356.99118164 122.12611816 357.59033203 122.6418457 C358.71659934 123.61320775 359.8377306 124.59056983 360.95263672 125.57495117 C363.96561837 128.17689969 366.65506255 129.97681332 370.453125 131.203125 C371.33871094 130.41550781 372.22429687 129.62789062 373.13671875 128.81640625 C382.58256179 120.48411855 392.35818929 112.73061799 402.453125 105.203125 C403.08718262 104.72633301 403.72124023 104.24954102 404.37451172 103.75830078 C479.09101303 47.59806815 568.5039068 12.78605316 701.87890625 0 C703.22658318 -0.00702149 704.57425977 -0.01410831 705.92193604 -0.02125549 C710.20317058 -0.04065043 714.48435095 -0.04568921 718.765625 -0.046875 C719.85916857 -0.04753778 719.85916857 -0.04753778 720.97480392 -0.04821396 C742.60701204 -0.0550922 763.98821024 0.17932093 785.453125 3.203125 C786.77533023 3.38228224 788.09759797 3.56097864 789.41992188 3.73925781 C857.09797154 12.9751726 922.73855527 34.2834093 981.84033203 68.68359375 C984.23501711 70.07627922 986.63737297 71.45440459 989.04296875 72.828125 C1019.11837065 90.11197224 1047.23256363 111.21437207 1072.72265625 134.71875 C1074.17088336 136.0364502 1075.62444947 137.3491725 1077.11450195 138.61938477 C1083.15305005 143.77543019 1088.75346854 149.35158202 1094.35327148 154.97290039 C1096.0123982 156.63738777 1097.67680551 158.29645947 1099.34179688 159.95507812 C1104.92230097 165.53172634 1110.35966369 171.17287718 1115.453125 177.203125 C1116.42577318 178.32145333 1117.39970048 179.43867066 1118.375 180.5546875 C1134.3884178 199.03965653 1149.28034599 218.58804285 1162.453125 239.203125 C1163.19296631 240.35820557 1163.19296631 240.35820557 1163.94775391 241.53662109 C1172.3865369 254.77754144 1180.16110889 268.29964976 1187.453125 282.203125 C1187.96842773 283.17781738 1188.48373047 284.15250977 1189.01464844 285.15673828 C1227.94787238 359.22569941 1246.58821575 442.57573218 1246.640625 526.015625 C1246.64171265 526.9614444 1246.64280029 527.90726379 1246.6439209 528.88174438 C1246.64356582 531.59962873 1246.63441002 534.31730706 1246.62109375 537.03515625 C1246.61927345 538.24594849 1246.61927345 538.24594849 1246.61741638 539.48120117 C1246.57663711 544.46758673 1246.15837812 549.26564969 1245.453125 554.203125 C1246.04303223 554.36893066 1246.63293945 554.53473633 1247.24072266 554.70556641 C1293.50457792 568.09797268 1338.88362035 593.70622101 1377.453125 622.203125 C1378.11425293 622.68700684 1378.77538086 623.17088867 1379.45654297 623.66943359 C1389.720792 631.18994609 1399.67164076 639.06609326 1409.453125 647.203125 C1410.04834961 647.69780273 1410.64357422 648.19248047 1411.25683594 648.70214844 C1424.4421915 659.71078049 1436.84734598 671.52494661 1449.015625 683.640625 C1449.75329102 684.37361816 1450.49095703 685.10661133 1451.25097656 685.86181641 C1455.85617707 690.48065418 1460.20545084 695.25556784 1464.453125 700.203125 C1465.49863411 701.39442928 1466.54547896 702.58456281 1467.59375 703.7734375 C1474.34098445 711.4700208 1480.86182955 719.29170062 1487.08496094 727.41845703 C1487.99837444 728.60993682 1488.91571316 729.79841752 1489.83691406 730.98388672 C1549.57414032 807.88674401 1585.28930172 901.80691814 1593.453125 1115.203125 C1581.63981398 1207.73474355 1545.96750603 1295.31487179 1438.578125 1426.203125 C1437.79356934 1426.99235352 1437.00901367 1427.78158203 1436.20068359 1428.59472656 C1431.44557259 1433.33672697 1426.55088792 1437.83398767 1421.453125 1442.203125 C1420.26173273 1443.24853385 1419.07160037 1444.29538051 1417.8828125 1445.34375 C1349.4098449 1505.37680446 1265.58537989 1546.592672 1037.390625 1574.453125 C1008.68112813 1572.52012813 980.56663589 1568.2974802 952.453125 1562.203125 C951.22287598 1561.93661133 949.99262695 1561.67009766 948.72509766 1561.39550781 C871.76816839 1544.29396798 796.56891784 1507.14569316 736.453125 1456.203125 C735.29323095 1455.22885442 734.13305751 1454.25491641 732.97265625 1453.28125 C723.89658927 1445.64658927 723.89658927 1445.64658927 721.453125 1443.203125 C717.44522787 1443.42674158 715.35687382 1445.90072872 712.578125 1448.578125 C706.76690045 1454.0387999 700.61933253 1458.95255326 694.2890625 1463.79541016 C692.50267933 1465.16512895 690.72773022 1466.54866886 688.953125 1467.93359375 C671.76670737 1481.20895515 653.34513584 1493.48953968 634.453125 1504.203125 C633.75993164 1504.59902832 633.06673828 1504.99493164 632.35253906 1505.40283203 C622.58103853 1510.96733659 612.69929836 1516.25272898 602.58300781 1521.16259766 C600.36226351 1522.24751423 598.15408029 1523.35577033 595.9453125 1524.46484375 C529.40524509 1557.46192367 454.21503647 1573.84766416 197.39465332 1547.014328 C184.50874492 1542.64555474 171.91266451 1537.67485606 159.453125 1532.203125 C157.86081055 1531.50799805 157.86081055 1531.50799805 156.23632812 1530.79882812 C108.4437942 1509.77242062 65.45257427 1481.60594731 25.453125 1448.203125 C24.29044572 1447.23427762 23.12769257 1446.26551888 21.96484375 1445.296875 C20.72154297 1444.26046875 20.72154297 1444.26046875 19.453125 1443.203125 C15.4357007 1444.86651375 12.47291463 1447.66555935 9.265625 1450.515625 C1.28815167 1457.47379572 -7.06981044 1463.86961758 -15.546875 1470.203125 C-16.19833496 1470.69200195 -16.84979492 1471.18087891 -17.52099609 1471.68457031 C-26.64896309 1478.52180676 -35.95354753 1485.03519665 -45.546875 1491.203125 C-46.69470459 1491.94151611 -46.69470459 1491.94151611 -47.86572266 1492.69482422 C-61.72980851 1501.55911024 -75.97113594 1509.57295381 -90.546875 1517.203125 C-91.44986328 1517.67991699 -92.35285156 1518.15670898 -93.28320312 1518.64794922 C-160.31093367 1553.87573181 -238.74360282 1574.05956948 -314.546875 1575.203125 C-315.73007324 1575.22358887 -316.91327148 1575.24405273 -318.13232422 1575.26513672 C-350.18887426 1575.76707953 -381.82476504 1573.87141317 -413.546875 1569.203125 C-414.69333496 1569.03474121 -415.83979492 1568.86635742 -417.02099609 1568.69287109 C-502.96111693 1555.62836941 -584.82582001 1519.07795561 -653.546875 1466.203125 C-654.14306641 1465.74728027 -654.73925781 1465.29143555 -655.35351562 1464.82177734 C-662.09948087 1459.65445722 -668.67859708 1454.32095668 -675.109375 1448.765625 C-675.66181885 1448.28875244 -676.2142627 1447.81187988 -676.78344727 1447.32055664 C-687.45667814 1438.00154065 -697.68059688 1428.23638703 -707.67871094 1418.20166016 C-709.4383098 1416.43663956 -711.20327897 1414.67711367 -712.96875 1412.91796875 C-718.70762378 1407.18276671 -724.32134811 1401.41711883 -729.546875 1395.203125 C-730.42349464 1394.19315504 -731.30104868 1393.18399509 -732.1796875 1392.17578125 C-739.04111436 1384.16361353 -745.51477262 1375.90113742 -751.84667969 1367.46533203 C-752.98140176 1365.95551946 -754.1200902 1364.44867984 -755.26269531 1362.94482422 C-811.59985629 1288.77763572 -845.79219361 1198.60075394 -854.07859802 977.51942444 C-847.39659602 929.52938236 -834.27130233 882.47596882 -814.546875 838.203125 C-813.85126465 836.62893799 -813.85126465 836.62893799 -813.14160156 835.02294922 C-793.75167903 791.35352784 -768.2170403 750.83135485 -737.546875 714.203125 C-737.03914551 713.59629883 -736.53141602 712.98947266 -736.00830078 712.36425781 C-734.506339 710.5761851 -732.9974734 708.79428044 -731.484375 707.015625 C-731.06269043 706.51828857 -730.64100586 706.02095215 -730.20654297 705.50854492 C-721.24781961 695.0832159 -711.70689999 685.19573405 -701.97265625 675.49853516 C-700.28006153 673.81136542 -698.59296903 672.11882304 -696.90625 670.42578125 C-691.28862361 664.80435684 -685.62257516 659.33379166 -679.546875 654.203125 C-678.41672534 653.21887383 -677.28779031 652.23322599 -676.16015625 651.24609375 C-669.08640044 645.109084 -661.89629311 639.19927192 -654.39599609 633.58837891 C-653.09384117 632.61288022 -651.79498085 631.63297594 -650.49853516 630.64990234 C-607.99029601 598.433432 -560.66201269 572.86546792 -510.43505859 554.95239258 C-508.56719581 554.35559277 -508.56719581 554.35559277 -507.546875 553.203125 C-507.46901641 551.63866359 -507.46105878 550.07066575 -507.48095703 548.50439453 C-507.49056961 547.49498306 -507.50018219 546.48557159 -507.51008606 545.4455719 C-507.53216377 543.78255287 -507.53216377 543.78255287 -507.5546875 542.0859375 C-507.57501608 539.71753801 -507.59425894 537.349129 -507.61254883 534.98071289 C-507.62299225 533.73146027 -507.63343567 532.48220764 -507.64419556 531.19509888 C-507.81008763 508.01904304 -507.46086095 485.20513508 -504.546875 462.203125 C-504.41959015 461.19067719 -504.41959015 461.19067719 -504.28973389 460.15777588 C-493.38591879 374.1601685 -461.90530054 291.89167614 -389.046875 192.1015625 C-386.70891209 189.39098675 -384.46623638 186.62615709 -382.234375 183.828125 C-372.63676531 172.11437567 -361.89082425 161.43801085 -351.22573853 150.70675659 C-349.99730745 149.47025073 -348.77035744 148.23227142 -347.54501343 146.9927063 C-340.94405885 140.32334336 -334.32574495 133.93603613 -326.94360352 128.1262207 C-324.42050702 126.1017294 -322.04529494 123.96277577 -319.671875 121.765625 C-314.50251962 117.07356534 -309.04600154 112.81566274 -303.46044922 108.63671875 C-302.1309578 107.64070273 -300.80468264 106.64038496 -299.48095703 105.63671875 C-245.58479453 64.78910086 -183.94874381 34.46077942 -118.546875 17.203125 C-117.46792969 16.91630859 -116.38898437 16.62949219 -115.27734375 16.33398438 C-86.48675441 8.78262408 -57.18371739 3.87843451 -27.546875 1.203125 C-26.58560699 1.11579605 -25.62433899 1.0284671 -24.63394165 0.93849182 C-16.41338394 0.24674742 -8.24740713 0.02850464 0 0 Z " fill="#000000" transform="translate(858.546875,-0.203125)"/>
  <path d="M0 0 C1.23991699 0.60666504 1.23991699 0.60666504 2.50488281 1.22558594 C20.25831862 9.99344777 36.64883476 20.49305003 52 33 C52.54543457 33.4424707 53.09086914 33.88494141 53.65283203 34.34082031 C67.37189508 45.55796262 80.17996228 57.94335969 91 72 C91.96596337 73.1926102 92.93352842 74.38392417 93.90234375 75.57421875 C136.01133814 128.04820452 154.50566174 196.96753408 148.1796875 263.59033203 C142.12880715 318.74829056 120.28823355 371.6206556 82.3125 412.50390625 C80.26342081 414.71566572 78.27800519 416.96422276 76.3125 419.25 C70.68717665 425.70334992 64.55461455 431.50123245 58 437 C57.51096191 437.4134668 57.02192383 437.82693359 56.51806641 438.25292969 C16.49308833 471.88594886 -32.13439913 492.82208814 -84 499 C-84.77738525 499.09571289 -85.55477051 499.19142578 -86.35571289 499.29003906 C-95.60574796 500.2857986 -104.8946479 500.24364823 -114.1875 500.25 C-115.52033524 500.25101212 -115.52033524 500.25101212 -116.88009644 500.25204468 C-131.11009889 500.23491996 -144.97771984 499.61008779 -159 497 C-159.95567871 496.82307617 -160.91135742 496.64615234 -161.89599609 496.46386719 C-206.57485219 487.92763301 -248.08502606 469.32206209 -283 440 C-283.78189697 439.3512793 -283.78189697 439.3512793 -284.57958984 438.68945312 C-295.98789351 429.20908451 -306.644347 419.32948066 -315.875 407.67578125 C-317.23820217 405.9592491 -318.63196233 404.26630131 -320.0625 402.60546875 C-363.56961892 351.82050457 -381.80619843 283.15153696 -377.77294922 217.29248047 C-375.12401546 183.36090041 -366.14562876 150.4869898 -351 120 C-350.64615234 119.27603027 -350.29230469 118.55206055 -349.92773438 117.80615234 C-341.83273724 101.36827654 -331.55872456 86.19631542 -320 72 C-319.56284668 71.45988281 -319.12569336 70.91976563 -318.67529297 70.36328125 C-307.1964796 56.28850902 -294.43120534 43.05823131 -280 32 C-278.56914063 30.84371094 -278.56914063 30.84371094 -277.109375 29.6640625 C-200.13135495 -31.64757659 -88.19693692 -43.50435611 0 0 Z " fill="#000000" transform="translate(1693,1678)"/>
  <path d="M0 0 C3.5807435 3.11653201 7.00607873 6.37879465 10.421875 9.67431641 C11.21335937 10.40263672 12.00484375 11.13095703 12.8203125 11.88134766 C35.8011272 33.61232858 48.53083218 66.80183989 49.58203125 98.03369141 C50.45391521 134.94712452 37.77416749 168.69604217 12.52075195 195.62231445 C-3.24450114 211.86495474 -23.13678864 223.3877501 -44.703125 229.98681641 C-45.48953369 230.22932129 -46.27594238 230.47182617 -47.08618164 230.72167969 C-58.80468041 234.13109179 -70.47602618 235.06525853 -82.640625 235.04931641 C-83.31488525 235.04910492 -83.98914551 235.04889343 -84.68383789 235.04867554 C-96.35800478 235.01232727 -107.3127997 233.81898849 -118.578125 230.67431641 C-119.83496094 230.34689453 -121.09179688 230.01947266 -122.38671875 229.68212891 C-143.18320573 223.54839647 -160.94096263 211.37873575 -176.578125 196.67431641 C-177.46371094 195.88541016 -177.46371094 195.88541016 -178.3671875 195.08056641 C-195.13705895 179.50286592 -206.20135336 156.62235515 -211.578125 134.67431641 C-211.75311523 133.96839355 -211.92810547 133.2624707 -212.10839844 132.53515625 C-219.97526946 99.05032601 -213.48116449 62.80818075 -195.578125 33.67431641 C-176.17193963 2.73480213 -146.1882097 -17.66097242 -110.78271484 -25.86767578 C-72.84493183 -34.18951206 -29.98745689 -25.19057718 0 0 Z " fill="#000000" transform="translate(2013.578125,2207.32568359375)"/>
</svg>
